<?xml version="1.0" standalone="no"?>
<svg xmlns:xlink="http://www.w3.org/1999/xlink" id="wave" style="transform:rotate(0deg); transition: 0.3s" viewBox="0 0 1440 490" version="1.1" xmlns="http://www.w3.org/2000/svg"><defs><linearGradient id="sw-gradient-0" x1="0" x2="0" y1="1" y2="0"><stop stop-color="rgba(62, 92.784, 243, 1)" offset="0%"/><stop stop-color="rgba(11, 159.948, 255, 1)" offset="100%"/></linearGradient></defs><path style="transform:translate(0, 0px); opacity:1" fill="url(#sw-gradient-0)" d="M0,147L60,147C120,147,240,147,360,196C480,245,600,343,720,326.7C840,310,960,180,1080,114.3C1200,49,1320,49,1440,81.7C1560,114,1680,180,1800,171.5C1920,163,2040,82,2160,106.2C2280,131,2400,261,2520,302.2C2640,343,2760,294,2880,302.2C3000,310,3120,376,3240,343C3360,310,3480,180,3600,147C3720,114,3840,180,3960,196C4080,212,4200,180,4320,187.8C4440,196,4560,245,4680,285.8C4800,327,4920,359,5040,367.5C5160,376,5280,359,5400,318.5C5520,278,5640,212,5760,212.3C5880,212,6000,278,6120,285.8C6240,294,6360,245,6480,220.5C6600,196,6720,196,6840,179.7C6960,163,7080,131,7200,138.8C7320,147,7440,196,7560,228.7C7680,261,7800,278,7920,294C8040,310,8160,327,8280,302.2C8400,278,8520,212,8580,179.7L8640,147L8640,490L8580,490C8520,490,8400,490,8280,490C8160,490,8040,490,7920,490C7800,490,7680,490,7560,490C7440,490,7320,490,7200,490C7080,490,6960,490,6840,490C6720,490,6600,490,6480,490C6360,490,6240,490,6120,490C6000,490,5880,490,5760,490C5640,490,5520,490,5400,490C5280,490,5160,490,5040,490C4920,490,4800,490,4680,490C4560,490,4440,490,4320,490C4200,490,4080,490,3960,490C3840,490,3720,490,3600,490C3480,490,3360,490,3240,490C3120,490,3000,490,2880,490C2760,490,2640,490,2520,490C2400,490,2280,490,2160,490C2040,490,1920,490,1800,490C1680,490,1560,490,1440,490C1320,490,1200,490,1080,490C960,490,840,490,720,490C600,490,480,490,360,490C240,490,120,490,60,490L0,490Z"/></svg>