<?xml version="1.0" standalone="no"?>
<svg xmlns:xlink="http://www.w3.org/1999/xlink" id="wave" style="transform:rotate(0deg); transition: 0.3s" viewBox="0 0 1440 490" version="1.1" xmlns="http://www.w3.org/2000/svg"><defs><linearGradient id="sw-gradient-0" x1="0" x2="0" y1="1" y2="0"><stop stop-color="rgba(59, 111, 137, 1)" offset="0%"/><stop stop-color="rgba(59, 111, 137, 1)" offset="100%"/></linearGradient></defs><path style="transform:translate(0, 0px); opacity:1" fill="url(#sw-gradient-0)" d="M0,294L80,253.2C160,212,320,131,480,147C640,163,800,278,960,277.7C1120,278,1280,163,1440,130.7C1600,98,1760,147,1920,187.8C2080,229,2240,261,2400,269.5C2560,278,2720,261,2880,277.7C3040,294,3200,343,3360,375.7C3520,408,3680,425,3840,359.3C4000,294,4160,147,4320,130.7C4480,114,4640,229,4800,269.5C4960,310,5120,278,5280,277.7C5440,278,5600,310,5760,277.7C5920,245,6080,147,6240,163.3C6400,180,6560,310,6720,359.3C6880,408,7040,376,7200,318.5C7360,261,7520,180,7680,138.8C7840,98,8000,98,8160,81.7C8320,65,8480,33,8640,65.3C8800,98,8960,196,9120,204.2C9280,212,9440,131,9600,98C9760,65,9920,82,10080,106.2C10240,131,10400,163,10560,171.5C10720,180,10880,163,11040,171.5C11200,180,11360,212,11440,228.7L11520,245L11520,490L11440,490C11360,490,11200,490,11040,490C10880,490,10720,490,10560,490C10400,490,10240,490,10080,490C9920,490,9760,490,9600,490C9440,490,9280,490,9120,490C8960,490,8800,490,8640,490C8480,490,8320,490,8160,490C8000,490,7840,490,7680,490C7520,490,7360,490,7200,490C7040,490,6880,490,6720,490C6560,490,6400,490,6240,490C6080,490,5920,490,5760,490C5600,490,5440,490,5280,490C5120,490,4960,490,4800,490C4640,490,4480,490,4320,490C4160,490,4000,490,3840,490C3680,490,3520,490,3360,490C3200,490,3040,490,2880,490C2720,490,2560,490,2400,490C2240,490,2080,490,1920,490C1760,490,1600,490,1440,490C1280,490,1120,490,960,490C800,490,640,490,480,490C320,490,160,490,80,490L0,490Z"/></svg>